
<svg width="359" height="151" viewBox="0 0 359 151" fill="none" xmlns="http://www.w3.org/2000/svg">
<path d="M79.3065 122.551C91.9418 122.551 101.701 116.766 101.701 104.099V53.3636H92.2326V61.4102H91.5217C89.809 58.3402 86.3835 52.7173 77.1413 52.7173C65.1523 52.7173 56.3303 62.1857 56.3303 77.9879C56.3303 93.8224 65.3462 102.257 77.0767 102.257C86.1896 102.257 89.712 97.1186 91.457 93.9517H92.071V103.711C92.071 111.37 86.739 114.763 79.4034 114.763C71.3569 114.763 68.2223 110.723 66.5096 107.977L58.2045 111.402C60.8221 117.38 67.4467 122.551 79.3065 122.551ZM79.2095 94.2425C70.5813 94.2425 66.0895 87.6179 66.0895 77.8587C66.0895 68.3256 70.4844 60.9254 79.2095 60.9254C87.6438 60.9254 92.168 67.8086 92.168 77.8587C92.168 88.1026 87.5469 94.2425 79.2095 94.2425ZM135.567 104.002C149.56 104.002 158.705 93.7578 158.705 78.408C158.705 62.9613 149.56 52.7173 135.567 52.7173C121.575 52.7173 112.43 62.9613 112.43 78.408C112.43 93.7578 121.575 104.002 135.567 104.002ZM135.6 95.8906C126.455 95.8906 122.189 87.9087 122.189 78.3757C122.189 68.875 126.455 60.7962 135.6 60.7962C144.68 60.7962 148.946 68.875 148.946 78.3757C148.946 87.9087 144.68 95.8906 135.6 95.8906ZM169.491 53.3636V106.102C169.491 110.723 167.584 113.244 162.995 113.244C162.446 113.244 162.026 113.244 161.444 113.212V121.549H163.318C173.691 121.678 179.153 116.12 179.153 106.167V53.3636H169.491ZM174.273 45.7049C177.602 45.7049 180.381 43.1197 180.381 39.9528C180.381 36.7859 177.602 34.1683 174.273 34.1683C170.912 34.1683 168.166 36.7859 168.166 39.9528C168.166 43.1197 170.912 45.7049 174.273 45.7049ZM206.597 104.099C214.805 104.099 219.426 99.93 221.268 96.2138H221.656V103H231.092V70.0384C231.092 55.5934 219.717 52.7173 211.832 52.7173C202.848 52.7173 194.575 56.3366 191.344 65.3849L200.424 67.4531C201.846 63.9308 205.466 60.5376 211.961 60.5376C218.198 60.5376 221.397 63.8015 221.397 69.4244V69.6506C221.397 73.1729 217.778 73.1083 208.859 74.1424C199.455 75.2411 189.825 77.6971 189.825 88.9751C189.825 98.7344 197.161 104.099 206.597 104.099ZM208.697 96.343C203.236 96.343 199.293 93.8871 199.293 89.1044C199.293 83.9339 203.882 82.092 209.473 81.3487C212.607 80.9286 220.04 80.0884 221.429 78.6989V85.0973C221.429 90.9787 216.744 96.343 208.697 96.343ZM253.623 73.5284C253.623 65.6111 258.471 61.087 265.192 61.087C271.752 61.087 275.727 65.3849 275.727 72.5913V103H285.389V71.4279C285.389 59.1481 278.636 52.7173 268.489 52.7173C261.024 52.7173 256.144 56.1751 253.85 61.4425H253.236V53.3636H243.961V103H253.623V73.5284ZM298.348 103H308.01V53.3636H298.348V103ZM303.228 45.7049C306.556 45.7049 309.335 43.1197 309.335 39.9528C309.335 36.7859 306.556 34.1683 303.228 34.1683C299.867 34.1683 297.12 36.7859 297.12 39.9528C297.12 43.1197 299.867 45.7049 303.228 45.7049Z" fill="#424242"/>
<path d="M86 46.5C86 38.6876 83.6834 31.0507 79.343 24.555C75.0027 18.0592 68.8337 12.9964 61.616 10.0068C54.3983 7.0171 46.4562 6.23487 38.7939 7.75898C31.1317 9.2831 24.0935 13.0451 18.5693 18.5693C13.0451 24.0935 9.2831 31.1317 7.75898 38.7939C6.23487 46.4562 7.0171 54.3983 10.0068 61.616C12.9964 68.8337 18.0592 75.0027 24.555 79.343C31.0507 83.6834 38.6876 86 46.5 86" stroke="#424242" stroke-width="13" stroke-linejoin="round"/>
<path d="M302 119C302 123.945 303.466 128.778 306.213 132.889C308.96 137 312.865 140.205 317.433 142.097C322.001 143.989 327.028 144.484 331.877 143.52C336.727 142.555 341.181 140.174 344.678 136.678C348.174 133.181 350.555 128.727 351.52 123.877C352.484 119.028 351.989 114.001 350.097 109.433C348.205 104.865 345 100.96 340.889 98.2133C336.778 95.4662 331.945 94 327 94" stroke="#424242" stroke-width="13" stroke-linejoin="round"/>
</svg>
