<svg width="1424" height="599" viewBox="0 0 1424 599" fill="none" xmlns="http://www.w3.org/2000/svg">
<g clip-path="url(#clip0)">
<rect width="1424" height="599" fill="white"/>
<path d="M174.043 242.514C170.091 242.722 165.19 243.509 161.556 244.523C156.473 245.94 152.092 247.805 147.523 250.49C143.317 252.96 138.761 256.593 135.491 260.077C130.74 265.128 127.321 270.321 124.558 276.665C121.906 282.749 120.294 289.717 119.8 297.173C119.761 297.777 119.696 298.668 119.664 299.149C119.612 299.76 119.612 300.293 119.664 300.904C119.703 301.391 119.761 302.269 119.8 302.86C119.963 305.304 120.366 308.665 120.749 310.693C122.017 317.446 123.889 322.685 127.243 328.821C128.666 331.434 129.44 332.65 131.045 334.808C136.616 342.283 144 348.341 152.209 352.169C154.66 353.313 155.732 353.749 158.638 354.776C161.758 355.881 163.74 356.407 166.795 356.934C170.585 357.59 171.098 357.623 177.033 357.623C182.954 357.623 183.565 357.584 187.433 356.908C189.474 356.55 190.923 356.199 192.275 355.738C192.828 355.549 194.232 355.075 195.395 354.678C196.559 354.282 197.989 353.768 198.574 353.528C203.293 351.617 207.589 349.199 211.554 346.228C214.817 343.784 217.307 341.438 220.394 337.895C225.549 331.987 229.637 324.447 231.854 316.738C233.128 312.298 233.856 308.047 234.2 302.958C234.239 302.386 234.298 301.495 234.337 300.982C234.389 300.306 234.389 299.773 234.337 299.032C234.291 298.473 234.233 297.595 234.194 297.075C233.966 293.741 233.869 292.961 232.861 286.675C232.432 283.978 231.1 279.811 229.546 276.275C229.033 275.112 227.687 272.369 227.18 271.465C225.516 268.488 223.735 265.843 222.461 264.445C222.188 264.14 221.655 263.529 221.285 263.08C217.541 258.602 213.712 255.124 209.182 252.069C207.914 251.218 207.069 250.724 204.45 249.307C198.236 245.946 191.313 243.756 184.215 242.898C181.583 242.579 180.731 242.534 177.585 242.514C175.889 242.501 174.296 242.501 174.043 242.514ZM179.958 250.99C182.252 251.14 183.63 251.322 183.63 251.484C183.63 251.582 183.507 251.621 182.038 251.991C179.256 252.68 175.115 254.013 172.6 255.014C168.349 256.71 165.814 257.906 162.102 259.973C155.492 263.646 149.85 267.949 145.209 272.869C142.121 276.132 140.425 278.251 138.085 281.768C135.264 285.999 132.846 290.965 130.889 296.523C130.252 298.33 129.199 302.074 128.666 304.407C128.426 305.46 128.218 306.11 128.114 306.11C128.081 306.11 128.023 306.032 127.99 305.941C127.951 305.837 127.925 303.536 127.925 299.838C127.925 293.247 127.906 293.591 128.38 291.063C129.401 285.609 131.481 280.175 134.412 275.3C137.929 269.457 142.03 264.933 147.692 260.662C154.959 255.189 164.26 251.692 173.23 251.062C173.783 251.023 174.355 250.977 174.498 250.964C175.167 250.912 179.035 250.932 179.958 250.99ZM202.259 258.335C202.513 258.368 202.883 258.459 203.091 258.53C203.748 258.777 205.717 260.149 207.758 261.767C210.566 264.003 212.796 266.187 215.311 269.184C216.91 271.088 217.287 271.569 218.074 272.733C220.622 276.496 222.325 279.837 223.839 284.036C224.19 285.011 224.262 285.369 224.106 285.492C224.06 285.531 223.326 285.791 222.468 286.077C218.165 287.514 214.895 289.048 210.735 291.602C207.167 293.786 203.169 296.971 199.978 300.163C196.903 303.237 193.894 307.046 191.989 310.264C188.369 316.38 186.328 322.282 185.359 329.445C185.171 330.823 185.041 332.234 184.898 334.548C184.839 335.438 184.781 336.244 184.761 336.322C184.742 336.407 184.774 337.063 184.826 337.785C184.878 338.506 184.969 339.741 185.028 340.528C185.177 342.569 185.437 344.655 185.775 346.443C185.853 346.833 185.957 347.398 186.016 347.697C186.159 348.458 186.191 348.432 184.605 348.679C182.064 349.069 180.946 349.14 177.065 349.14C173.971 349.14 172.366 349.075 170.825 348.874C167.647 348.471 165.06 347.873 162.213 346.898C159.145 345.845 157.617 345.214 155.095 343.966C153.282 343.069 151.845 342.237 149.96 340.983C145.774 338.201 142.095 334.931 139.06 331.298C137.454 329.374 135.218 326.215 135.075 325.669C135.03 325.5 135.01 323.407 135.03 319.318L135.049 313.228L135.257 311.895C135.803 308.346 136.453 305.545 137.545 301.983C138.871 297.667 141.029 292.818 143.22 289.243C144.643 286.916 145.95 285.05 147.555 283.042C148.966 281.28 149.993 280.143 151.813 278.316C156.044 274.085 160.971 270.412 166.568 267.338C173.451 263.555 180.218 261.007 187.205 259.577C190.13 258.979 194.043 258.498 197.183 258.342C198.671 258.27 201.713 258.264 202.259 258.335ZM226.082 294.196C226.121 294.306 226.14 296.432 226.121 300.351C226.101 306.188 226.101 306.357 225.958 307.248C224.925 313.67 222.676 319.78 219.361 325.155C217.638 327.944 216.182 329.907 213.888 332.533C210.579 336.322 206.023 340.027 201.453 342.647C198.86 344.129 194.726 346.02 194.063 346.02C193.764 346.02 193.686 345.864 193.484 344.844C193.055 342.712 193.055 342.751 193.055 336.68C193.055 330.583 193.049 330.706 193.478 328.431C194.414 323.498 196.442 318.636 199.516 313.975C200.186 312.961 201.791 310.823 202.688 309.75C205.132 306.838 208.629 303.614 212.133 301.047C215.747 298.395 219.718 296.23 223.67 294.748C225.932 293.903 225.965 293.897 226.082 294.196Z" fill="#4542F4"/>
<circle cx="1164.07" cy="91.7799" r="56.4337" stroke="#4542F4" stroke-opacity="0.32" stroke-width="21"/>
<circle cx="1051.46" cy="131.231" r="23.2528" stroke="#4542F4" stroke-opacity="0.32" stroke-width="20"/>
<circle cx="1199.34" cy="183.485" r="15.4148" stroke="#4542F4" stroke-opacity="0.32" stroke-width="15"/>
<path d="M1552.57 -135C1513.9 -93.2843 1244.02 -19.2587 1244.02 255.594C1244.02 445.797 1465.13 483.594 1526.97 518.69C1463.48 512.246 1284.15 532.485 1074.71 665" stroke="url(#paint0_linear)" stroke-width="40"/>
<rect x="995.943" y="515.935" width="111.994" height="111.994" rx="55.9971" transform="rotate(-37.8374 995.943 515.935)" stroke="#4542F4" stroke-opacity="0.32" stroke-width="27"/>
<rect x="1080.39" y="389.387" width="55.3015" height="55.3015" rx="27.6507" transform="rotate(-37.8374 1080.39 389.387)" stroke="#4542F4" stroke-opacity="0.32" stroke-width="20"/>
<rect x="1167.11" y="456.648" width="42.5144" height="42.5144" rx="21.2572" transform="rotate(-37.8374 1167.11 456.648)" stroke="#4542F4" stroke-opacity="0.32" stroke-width="17"/>
<circle cx="935.792" cy="147.451" r="4.08426" fill="#4542F4" fill-opacity="0.32"/>
<circle cx="806.98" cy="251.129" r="2.82756" fill="#4542F4" fill-opacity="0.32"/>
<circle cx="857.248" cy="228.508" r="2.19922" fill="#4542F4" fill-opacity="0.32"/>
<circle cx="754.199" cy="94.0418" r="2.19922" fill="#4542F4" fill-opacity="0.32"/>
<circle cx="865.417" cy="280.033" r="2.19922" fill="#4542F4" fill-opacity="0.32"/>
<circle cx="963.439" cy="180.125" r="2.82756" fill="#4542F4" fill-opacity="0.32"/>
<circle cx="947.416" cy="70.4788" r="3.14174" fill="#4542F4" fill-opacity="0.32"/>
<circle cx="832.114" cy="127.973" r="4.71261" fill="#4542F4" fill-opacity="0.32"/>
<circle cx="893.064" cy="122.318" r="2.19922" fill="#4542F4" fill-opacity="0.32"/>
<circle cx="877.355" cy="150.593" r="2.82756" fill="#4542F4" fill-opacity="0.32"/>
<circle cx="876.099" cy="55.0843" r="4.08426" fill="#4542F4" fill-opacity="0.32"/>
<circle cx="849.08" cy="357.948" r="4.08426" fill="#4542F4" fill-opacity="0.32"/>
<circle cx="990.144" cy="425.495" r="2.51339" fill="#4542F4" fill-opacity="0.32"/>
<circle cx="929.511" cy="293.306" r="4.08426" fill="#4542F4" fill-opacity="0.32"/>
<circle cx="710.865" cy="514.557" r="4.08426" transform="rotate(-180 710.865 514.557)" fill="#4542F4" fill-opacity="0.32"/>
<circle cx="839.677" cy="410.88" r="2.82756" transform="rotate(-180 839.677 410.88)" fill="#4542F4" fill-opacity="0.32"/>
<circle cx="789.409" cy="433.5" r="2.19922" transform="rotate(-180 789.409 433.5)" fill="#4542F4" fill-opacity="0.32"/>
<circle cx="892.458" cy="567.967" r="2.19922" transform="rotate(-180 892.458 567.967)" fill="#4542F4" fill-opacity="0.32"/>
<circle cx="781.24" cy="381.976" r="2.19922" transform="rotate(-180 781.24 381.976)" fill="#4542F4" fill-opacity="0.32"/>
<circle cx="683.218" cy="481.883" r="2.82756" transform="rotate(-180 683.218 481.883)" fill="#4542F4" fill-opacity="0.32"/>
<circle cx="699.241" cy="591.53" r="3.14174" transform="rotate(-180 699.241 591.53)" fill="#4542F4" fill-opacity="0.32"/>
<circle cx="814.543" cy="534.036" r="4.71261" transform="rotate(-180 814.543 534.036)" fill="#4542F4" fill-opacity="0.32"/>
<circle cx="753.593" cy="539.691" r="2.19922" transform="rotate(-180 753.593 539.691)" fill="#4542F4" fill-opacity="0.32"/>
<circle cx="769.302" cy="511.415" r="2.82756" transform="rotate(-180 769.302 511.415)" fill="#4542F4" fill-opacity="0.32"/>
<circle cx="797.578" cy="304.061" r="4.08426" transform="rotate(-180 797.578 304.061)" fill="#4542F4" fill-opacity="0.32"/>
<circle cx="656.513" cy="236.513" r="2.51339" transform="rotate(-180 656.513 236.513)" fill="#4542F4" fill-opacity="0.32"/>
<circle cx="717.146" cy="368.703" r="4.08426" transform="rotate(-180 717.146 368.703)" fill="#4542F4" fill-opacity="0.32"/>
<circle cx="132.639" cy="513.681" r="4.08426" fill="#4542F4" fill-opacity="0.32"/>
<circle cx="54.0954" cy="598.508" r="2.19922" fill="#4542F4" fill-opacity="0.32"/>
<circle cx="160.286" cy="550.125" r="2.82756" fill="#4542F4" fill-opacity="0.32"/>
<circle cx="144.263" cy="440.479" r="3.14174" fill="#4542F4" fill-opacity="0.32"/>
<circle cx="28.9615" cy="497.973" r="4.71261" fill="#4542F4" fill-opacity="0.32"/>
<circle cx="89.9112" cy="492.318" r="2.19922" fill="#4542F4" fill-opacity="0.32"/>
<circle cx="74.2025" cy="520.593" r="2.82756" fill="#4542F4" fill-opacity="0.32"/>
<circle cx="72.9458" cy="425.084" r="4.08426" fill="#4542F4" fill-opacity="0.32"/>
<path d="M15 151C17.4678 138.766 28.3262 114.298 52.0172 114.298C75.7082 114.298 87.2103 98.766 90 91" stroke="#4542F4" stroke-opacity="0.1" stroke-width="4" stroke-linecap="round" stroke-linejoin="round"/>
<path d="M29 165C31.402 152.97 41.9708 128.91 65.03 128.91C88.0893 128.91 99.2847 113.637 102 106" stroke="#4542F4" stroke-opacity="0.1" stroke-width="4" stroke-linecap="round" stroke-linejoin="round"/>
<path d="M45 180C47.402 168.174 57.9708 144.521 81.03 144.521C104.089 144.521 115.285 129.507 118 122" stroke="#4542F4" stroke-opacity="0.1" stroke-width="4" stroke-linecap="round" stroke-linejoin="round"/>
<path d="M368.878 64.5176C363.596 67.1809 359.064 71.1217 355.692 75.9818C352.321 80.842 350.217 86.4675 349.573 92.3473C348.928 98.2271 349.762 104.175 352.001 109.65C354.239 115.125 357.81 119.955 362.388 123.699C366.967 127.444 372.409 129.985 378.22 131.091C384.03 132.198 390.025 131.836 395.66 130.037C401.295 128.238 406.391 125.059 410.485 120.79C414.58 116.521 417.542 111.297 419.104 105.592L408.832 102.779C407.738 106.773 405.664 110.43 402.799 113.418C399.933 116.407 396.365 118.631 392.421 119.891C388.477 121.15 384.28 121.404 380.213 120.629C376.145 119.854 372.336 118.076 369.131 115.454C365.925 112.833 363.426 109.453 361.859 105.62C360.293 101.787 359.708 97.624 360.16 93.5082C360.611 89.3923 362.083 85.4545 364.443 82.0523C366.803 78.6502 369.976 75.8917 373.673 74.0274L368.878 64.5176Z" fill="#4542F4" fill-opacity="0.09"/>
</g>
<defs>
<linearGradient id="paint0_linear" x1="1074.71" y1="329.794" x2="1477.07" y2="412.093" gradientUnits="userSpaceOnUse">
<stop stop-color="#4542F4" stop-opacity="0.32"/>
<stop offset="1" stop-color="#4542F4" stop-opacity="0.59"/>
</linearGradient>
<clipPath id="clip0">
<rect width="1424" height="599" fill="white"/>
</clipPath>
</defs>
</svg>
